<?xml version="1.0" standalone="no"?>
<!DOCTYPE svg PUBLIC "-//W3C//DTD SVG 20010904//EN"
 "http://www.w3.org/TR/2001/REC-SVG-20010904/DTD/svg10.dtd">
<svg version="1.0" xmlns="http://www.w3.org/2000/svg"
 width="1920.000000pt" height="1920.000000pt" viewBox="0 0 1920.000000 1920.000000"
 preserveAspectRatio="xMidYMid meet">
<metadata>
Created by potrace 1.13, written by Peter Selinger 2001-2015
</metadata>
<g transform="translate(0.000000,1920.000000) scale(0.100000,-0.100000)"
fill="#000000" stroke="none">
<path d="M9330 17730 c-30 -5 -89 -8 -130 -9 -41 -1 -122 -5 -180 -11 -58 -5
-170 -14 -250 -20 -80 -6 -149 -15 -153 -20 -5 -4 1 -138 12 -296 12 -159 32
-462 46 -674 14 -212 28 -391 30 -398 6 -15 3 -15 375 12 118 8 251 17 295 20
197 12 267 20 271 30 7 19 -12 236 -22 245 -5 5 -151 -2 -324 -14 -173 -12
-316 -21 -318 -20 -2 2 -7 61 -13 131 -5 71 -11 139 -13 152 -4 28 6 34 63 38
25 2 148 10 273 19 124 8 233 18 242 21 13 5 15 19 10 82 -3 43 -7 97 -10 121
l-6 44 -136 -7 c-75 -4 -206 -13 -290 -19 -85 -7 -156 -9 -159 -4 -9 15 -24
270 -16 278 4 4 149 17 322 28 173 12 317 23 319 26 2 2 0 59 -4 127 l-9 123
-85 1 c-47 1 -110 -2 -140 -6z"/>
<path d="M10035 17718 c-2 -7 -27 -224 -55 -483 -28 -258 -62 -560 -75 -670
-13 -110 -20 -204 -16 -208 5 -5 39 -13 77 -17 191 -25 206 -26 209 -16 2 6
15 119 30 251 14 132 29 243 33 247 10 10 130 -5 141 -18 5 -5 68 -127 140
-271 72 -144 136 -265 141 -268 11 -7 129 -22 248 -32 53 -4 72 -2 72 7 0 6
-17 44 -39 83 -21 40 -58 108 -81 152 -23 44 -69 131 -102 193 -33 62 -58 118
-55 126 3 7 21 16 40 20 58 11 153 64 192 107 127 141 149 386 49 545 -79 127
-210 189 -449 213 -55 6 -138 15 -185 21 -275 33 -309 35 -315 18z m460 -293
c147 -18 203 -42 236 -105 27 -49 25 -141 -2 -190 -47 -83 -142 -103 -344 -73
l-120 18 2 45 c2 25 10 109 19 187 l17 141 31 -4 c17 -2 90 -11 161 -19z"/>
<path d="M8160 17625 c-25 -7 -81 -22 -125 -34 -43 -12 -83 -25 -88 -30 -4 -4
-12 -62 -17 -127 -5 -65 -25 -290 -45 -498 -19 -209 -35 -386 -35 -394 0 -11
-3 -12 -14 -2 -8 6 -142 200 -296 431 l-282 420 -31 -6 c-18 -3 -43 -10 -57
-15 -14 -5 -67 -19 -117 -31 -52 -13 -93 -28 -93 -35 0 -6 16 -33 35 -60 83
-115 479 -681 739 -1056 37 -54 70 -98 74 -97 4 0 65 15 137 33 147 38 137 27
149 156 4 41 37 338 73 660 36 322 68 611 70 643 6 65 5 65 -77 42z"/>
<path d="M11672 17420 c-190 -50 -304 -215 -289 -417 10 -128 93 -242 259
-354 109 -74 214 -156 231 -182 27 -42 31 -75 13 -120 -25 -63 -57 -82 -141
-82 -143 0 -285 67 -424 202 -46 46 -85 82 -86 80 -5 -8 -28 -76 -55 -166
l-32 -103 39 -40 c74 -76 272 -188 378 -212 73 -17 202 -35 225 -31 14 2 48 7
75 11 123 17 252 117 294 227 51 137 48 239 -10 348 -41 76 -118 148 -291 271
-155 111 -178 137 -178 200 0 77 49 118 143 118 117 0 260 -71 374 -187 40
-40 76 -73 81 -73 4 0 17 28 27 63 10 34 26 87 36 117 29 86 27 92 -48 155
-110 91 -262 158 -417 185 -82 14 -119 12 -204 -10z"/>
<path d="M6528 17126 c-70 -28 -130 -54 -133 -57 -3 -4 10 -42 29 -85 18 -44
56 -133 84 -199 27 -66 73 -175 101 -242 27 -66 100 -246 162 -400 118 -296
147 -363 154 -363 16 0 261 104 267 113 4 6 3 16 -1 22 -4 5 -23 48 -41 95
-18 47 -43 108 -56 135 -24 55 -63 150 -209 510 -53 132 -103 254 -110 270 -7
17 -20 50 -30 75 -36 97 -75 180 -83 179 -4 0 -64 -24 -134 -53z"/>
<path d="M12832 17057 c-5 -7 -16 -28 -25 -47 -9 -19 -34 -75 -56 -123 -23
-49 -41 -91 -41 -93 0 -3 -18 -44 -76 -171 -15 -32 -34 -76 -44 -98 -10 -22
-29 -66 -44 -97 -14 -32 -38 -84 -52 -115 -15 -32 -34 -76 -44 -98 -10 -22
-29 -65 -43 -95 -13 -30 -35 -77 -47 -105 -12 -27 -38 -81 -56 -120 -19 -38
-34 -77 -34 -85 0 -8 15 -22 33 -29 17 -8 74 -34 125 -58 51 -24 97 -43 103
-43 5 0 18 19 28 43 10 23 30 67 44 97 13 30 40 91 60 135 19 44 46 105 60
135 13 30 35 78 47 105 12 28 34 75 47 105 14 30 33 73 43 95 10 22 29 65 43
95 13 30 34 75 45 100 11 25 39 86 62 135 114 246 109 221 52 246 -223 102
-218 101 -230 86z"/>
<path d="M5910 16860 c-14 -11 -29 -20 -33 -20 -5 0 -28 -13 -52 -30 -24 -16
-47 -30 -51 -30 -4 0 -22 -12 -41 -26 -34 -26 -34 -26 -17 -52 50 -75 414
-685 414 -693 0 -12 1 -13 -71 20 -161 73 -600 271 -649 294 -176 81 -214 97
-226 97 -7 0 -48 -21 -91 -47 -43 -27 -91 -55 -107 -63 -16 -8 -30 -20 -33
-26 -2 -7 42 -88 98 -180 123 -204 408 -682 509 -854 107 -183 86 -174 219
-95 62 37 115 73 117 79 3 7 -32 73 -77 147 -154 252 -358 595 -365 612 -5 15
-3 16 17 8 23 -8 697 -307 789 -349 129 -59 184 -82 198 -82 14 0 202 107 202
115 0 3 -114 195 -253 427 -140 233 -287 479 -327 548 -97 166 -131 220 -139
220 -3 0 -17 -9 -31 -20z"/>
<path d="M13321 16723 c-33 -54 -61 -105 -61 -114 0 -8 15 -23 33 -32 63 -32
321 -195 325 -205 1 -5 -50 -95 -114 -198 -64 -104 -153 -247 -197 -319 -44
-71 -93 -149 -108 -172 -16 -23 -29 -44 -29 -48 0 -3 -22 -39 -50 -80 -27 -41
-50 -78 -50 -83 0 -5 -7 -15 -15 -22 -29 -24 -17 -47 42 -82 120 -69 139 -81
164 -99 29 -20 35 -17 68 41 8 14 37 61 64 105 28 44 62 100 77 125 15 25 51
83 80 130 29 47 73 119 98 160 83 137 225 365 232 373 8 9 39 -9 235 -132 118
-74 165 -95 165 -73 0 4 27 50 60 102 33 52 60 98 60 101 0 6 -106 79 -115 79
-5 0 -38 20 -187 117 -37 23 -70 43 -73 43 -4 0 -33 18 -65 40 -32 22 -61 40
-64 40 -5 0 -240 146 -348 216 -37 24 -71 44 -75 44 -5 0 -19 9 -33 20 -43 34
-55 26 -119 -77z"/>
<path d="M14555 16078 c-5 -14 -12 -50 -85 -408 -27 -135 -63 -311 -80 -392
-16 -81 -30 -150 -30 -153 0 -5 -133 -156 -234 -265 -83 -90 -116 -128 -116
-138 0 -10 164 -162 197 -182 28 -17 3 -41 236 223 77 86 149 159 160 162 36
11 617 196 737 235 47 15 106 34 133 41 48 14 63 39 33 56 -8 4 -54 44 -102
88 -105 97 -110 100 -138 87 -35 -18 -589 -202 -593 -198 -4 4 8 75 27 156 15
66 32 145 40 185 8 44 27 127 41 190 28 117 29 111 -72 200 -138 121 -148 129
-154 113z"/>
<path d="M4425 15878 c-55 -50 -103 -96 -106 -102 -4 -6 48 -70 115 -142 457
-494 474 -513 508 -582 72 -146 11 -297 -150 -372 -55 -26 -145 -24 -203 4
-70 33 -83 47 -625 639 -40 44 -67 66 -75 62 -12 -8 -70 -60 -163 -146 -57
-53 -58 -49 34 -146 36 -37 141 -151 234 -253 317 -346 382 -402 536 -461 55
-22 232 -16 299 10 124 47 275 168 351 281 68 102 85 160 84 290 0 182 -38
255 -245 480 -68 75 -204 225 -303 333 -98 108 -181 197 -185 197 -3 0 -51
-41 -106 -92z"/>
<path d="M3045 14319 c-103 -49 -225 -175 -281 -290 -66 -135 -78 -183 -78
-319 -1 -158 22 -236 106 -362 111 -165 276 -281 480 -338 89 -24 255 -27 338
-5 269 71 508 365 510 627 0 47 -1 48 -57 85 -32 20 -89 56 -127 80 -37 25
-72 41 -76 36 -5 -4 -5 -28 0 -53 12 -63 -12 -179 -55 -267 -59 -119 -160
-197 -291 -224 -97 -20 -217 13 -334 92 -107 73 -169 154 -196 260 -42 163 35
340 195 448 31 21 77 46 101 54 24 8 46 19 48 25 3 10 -132 107 -210 150 -33
19 -35 19 -73 1z"/>
<path d="M15885 14265 c-188 -30 -332 -102 -473 -239 -90 -86 -144 -168 -180
-271 -53 -154 -54 -256 -5 -405 55 -169 183 -318 337 -391 104 -50 174 -62
316 -56 100 4 127 9 207 39 251 95 430 271 509 503 28 82 30 236 5 329 -27
100 -81 204 -141 273 -109 126 -247 202 -395 218 -33 4 -69 8 -80 10 -11 1
-56 -3 -100 -10z m263 -317 c60 -29 131 -99 162 -163 21 -42 25 -65 25 -140 0
-80 -3 -97 -30 -150 -59 -118 -214 -242 -359 -287 -89 -27 -219 -22 -285 11
-159 81 -227 271 -154 431 69 151 254 289 433 324 51 9 161 -4 208 -26z"/>
<path d="M6060 13161 c-165 -165 -300 -314 -300 -331 0 -7 166 -8 500 -4 564
8 528 13 472 -69 -16 -23 -31 -49 -35 -57 -3 -8 -26 -46 -49 -85 l-43 -70
-519 3 c-285 2 -529 1 -541 -2 -12 -3 -42 -35 -68 -73 -25 -38 -60 -87 -77
-111 -16 -23 -30 -45 -30 -48 0 -3 -13 -24 -29 -47 -37 -54 -71 -115 -71 -127
0 -7 503 -8 1428 -3 l1427 6 36 -44 c20 -24 50 -58 65 -75 16 -16 54 -57 84
-90 30 -33 114 -122 186 -199 72 -77 144 -156 160 -175 16 -19 46 -52 66 -73
21 -22 36 -43 33 -47 -3 -4 -431 -5 -952 -3 -1120 6 -1155 4 -1422 -83 -288
-94 -520 -245 -805 -524 -166 -162 -268 -276 -379 -423 -153 -201 -174 -323
-68 -394 l34 -23 552 7 c468 5 553 4 564 -8 7 -8 50 -75 95 -149 l83 -135
2734 -2 2734 -3 135 205 c74 112 140 206 145 207 6 2 555 0 1220 -3 666 -4
1213 -4 1218 0 12 12 -33 345 -61 446 l-8 30 -635 2 c-349 2 -641 3 -650 3
-12 0 -19 18 -28 73 -6 39 -16 98 -23 129 -19 99 -83 90 635 86 l632 -3 -3 25
c-8 79 -165 535 -187 544 -7 2 -644 0 -1415 -5 -1196 -8 -1406 -7 -1424 5 -12
7 -32 24 -46 36 -14 12 -41 34 -60 49 -19 14 -37 28 -40 31 -3 3 -21 17 -42
32 -20 15 -42 33 -50 40 -7 7 -34 29 -58 48 -67 52 -80 62 -119 95 -20 17
-106 87 -191 155 -85 68 -157 127 -160 130 -3 3 -21 17 -42 32 -20 15 -42 33
-50 40 -7 7 -29 25 -48 39 -19 15 -45 35 -57 45 -12 11 -47 39 -78 64 -32 25
-76 61 -100 80 -57 47 -13 12 -630 507 l-550 441 -1470 4 -1470 4 -155 -155z
m3270 -1121 c0 -5 14 -10 30 -10 18 0 30 -5 30 -13 0 -9 12 -11 40 -9 31 3 40
1 40 -11 0 -10 7 -13 18 -10 10 2 24 -2 31 -10 6 -8 21 -13 31 -10 14 4 20 0
20 -10 0 -10 6 -13 20 -10 14 4 20 0 20 -11 0 -10 5 -14 11 -11 13 8 177 -72
200 -97 9 -10 20 -18 25 -18 13 0 177 -83 192 -97 8 -8 34 -22 58 -34 25 -11
48 -26 51 -34 3 -8 11 -15 17 -15 21 0 117 -52 123 -66 3 -8 11 -14 17 -14 21
0 117 -52 123 -66 3 -8 11 -14 18 -14 16 0 99 -42 103 -52 2 -5 12 -8 23 -8
10 0 19 -6 19 -14 0 -9 7 -12 20 -9 11 3 20 1 20 -4 0 -6 48 -34 108 -64 59
-29 114 -61 123 -71 9 -10 24 -18 33 -18 9 0 16 -4 16 -10 0 -5 6 -10 12 -10
23 0 147 -65 148 -77 0 -6 9 -9 20 -6 14 4 20 0 20 -11 0 -9 6 -13 14 -10 8 3
25 -4 37 -15 13 -12 29 -21 36 -21 7 0 13 -4 13 -10 0 -5 7 -10 15 -10 9 0 25
-9 37 -20 12 -11 28 -20 35 -20 7 0 13 -6 13 -14 0 -9 7 -12 20 -9 14 4 20 0
20 -11 0 -9 6 -13 15 -10 15 6 45 -17 45 -35 0 -6 6 -8 14 -5 17 7 166 -138
166 -161 0 -8 5 -15 10 -15 6 0 10 -20 10 -45 0 -25 -4 -45 -10 -45 -5 0 -10
-11 -10 -25 0 -28 -118 -155 -145 -155 -8 0 -15 -5 -15 -11 0 -6 -9 -9 -20 -6
-14 3 -20 0 -20 -10 0 -10 -6 -14 -20 -10 -14 3 -20 0 -20 -10 0 -10 -6 -14
-20 -10 -14 3 -20 0 -20 -10 0 -11 -8 -14 -30 -11 -22 3 -30 0 -30 -10 0 -9
-7 -13 -20 -9 -13 3 -20 0 -20 -10 0 -12 -9 -14 -40 -11 -29 2 -40 0 -40 -10
0 -10 -13 -13 -50 -10 -37 2 -50 -1 -50 -10 0 -10 -20 -13 -90 -10 -69 2 -90
0 -90 -10 0 -10 -33 -12 -157 -9 -87 1 -169 6 -183 11 -14 4 -64 7 -112 6 -52
-1 -97 4 -110 11 -13 7 -46 11 -75 10 -29 -1 -71 3 -95 10 -24 6 -66 11 -95
10 -28 -1 -62 3 -75 10 -13 7 -40 12 -60 10 -21 -1 -48 4 -60 10 -13 7 -40 12
-61 10 -22 -1 -46 4 -54 11 -8 7 -31 11 -50 9 -19 -1 -41 3 -49 10 -9 7 -33
12 -53 10 -24 -1 -42 3 -50 12 -6 8 -20 13 -30 10 -9 -2 -23 2 -30 10 -6 8
-21 13 -31 10 -14 -4 -20 0 -20 11 0 10 -5 14 -11 10 -11 -6 -101 34 -107 49
-2 4 -10 7 -18 7 -15 0 -144 124 -144 138 0 4 -9 18 -21 31 -11 12 -18 29 -15
37 3 8 -1 14 -10 14 -11 0 -15 6 -11 20 3 14 0 20 -10 20 -10 0 -14 6 -10 20
3 10 -2 25 -9 31 -8 7 -13 20 -12 29 2 9 -3 24 -11 33 -8 10 -12 31 -9 52 3
24 0 35 -9 35 -18 0 -19 266 -1 272 7 3 11 21 10 50 -2 29 2 49 11 57 9 6 12
22 9 37 -3 16 1 29 9 34 8 6 12 24 11 50 -2 23 3 48 9 57 8 8 11 38 10 74 -2
37 2 59 8 59 7 0 11 27 11 70 0 40 4 70 10 70 6 0 10 18 10 40 0 22 5 40 10
40 6 0 10 9 10 20 0 11 5 20 10 20 6 0 10 9 10 20 0 13 7 20 20 20 11 0 20 5
20 10 0 6 14 10 30 10 17 0 30 5 30 10 0 6 20 10 45 10 25 0 45 -4 45 -10z
m-1940 -1002 c0 -7 2 -214 5 -459 6 -390 4 -447 -9 -458 -12 -10 -94 -11 -381
-5 l-365 7 -66 113 -66 114 -398 0 c-219 0 -405 3 -414 6 -23 9 52 101 199
242 221 213 452 352 690 414 123 32 167 35 498 37 240 1 307 -2 307 -11z m843
-18 c74 -35 141 -101 177 -176 28 -59 32 -77 32 -149 0 -72 -4 -90 -32 -149
-32 -66 -99 -138 -151 -162 -13 -6 -37 -17 -53 -25 -17 -8 -63 -13 -120 -13
-84 0 -96 2 -154 34 -102 54 -163 137 -192 259 -38 162 98 365 270 402 61 14
172 3 223 -21z"/>
<path d="M9165 11987 c-25 -29 -26 -40 -2 -18 15 14 27 26 27 28 0 7 -16 1
-25 -10z"/>
<path d="M11525 10810 c3 -5 8 -10 11 -10 2 0 4 5 4 10 0 6 -5 10 -11 10 -5 0
-7 -4 -4 -10z"/>
<path d="M11545 10781 c-3 -5 -1 -12 5 -16 5 -3 10 1 10 9 0 18 -6 21 -15 7z"/>
<path d="M11573 10700 c0 -30 2 -43 4 -27 2 15 2 39 0 55 -2 15 -4 2 -4 -28z"/>
<path d="M11545 10621 c-3 -5 -1 -12 5 -16 5 -3 10 1 10 9 0 18 -6 21 -15 7z"/>
<path d="M11515 10570 c-10 -11 -14 -20 -9 -20 5 0 15 9 22 20 7 11 11 20 9
20 -2 0 -12 -9 -22 -20z"/>
<path d="M11460 10515 c-11 -13 -10 -14 4 -9 9 3 16 10 16 15 0 13 -6 11 -20
-6z"/>
<path d="M11785 13284 c-43 -26 -233 -145 -1067 -666 -71 -44 -128 -83 -128
-87 0 -4 44 -42 98 -84 53 -43 120 -95 147 -117 28 -22 102 -80 165 -130 63
-50 122 -96 130 -103 8 -7 35 -28 60 -47 25 -19 47 -37 50 -40 3 -3 21 -17 42
-32 20 -15 42 -33 50 -40 7 -7 29 -25 50 -40 20 -15 42 -33 50 -40 7 -7 29
-25 50 -40 20 -15 42 -33 50 -40 7 -7 29 -25 48 -39 19 -15 46 -36 59 -48 30
-26 29 -26 73 4 20 14 39 25 43 25 5 0 37 20 187 117 37 23 70 43 74 43 3 0
25 14 49 30 24 17 48 30 54 30 6 0 11 5 11 10 0 6 5 10 11 10 5 0 37 18 69 40
32 22 61 40 64 40 3 0 40 23 83 51 l78 51 773 -7 c533 -4 772 -3 772 4 0 29
-200 341 -252 393 -18 18 -40 18 -546 12 -447 -6 -529 -5 -538 7 -6 8 -25 39
-41 69 -16 30 -48 86 -71 123 -23 38 -39 74 -35 80 4 7 155 8 500 4 304 -4
493 -3 493 3 0 18 -108 138 -281 313 l-177 178 -598 -3 -598 -3 -51 -31z"/>
<path d="M2271 13118 c-5 -13 -32 -72 -60 -131 -28 -60 -49 -113 -46 -118 4
-5 27 -19 53 -30 26 -12 89 -41 140 -65 52 -24 95 -44 97 -44 2 0 45 -20 97
-44 51 -24 119 -55 150 -69 32 -15 92 -43 133 -62 41 -19 108 -50 148 -69 76
-35 190 -89 332 -156 46 -22 91 -40 100 -40 8 0 26 25 40 58 15 31 41 89 60
127 18 39 31 74 28 78 -4 7 -41 25 -190 93 -29 13 -77 35 -105 48 -99 45 -186
85 -273 126 -82 39 -141 66 -275 128 -30 13 -107 49 -170 79 -157 75 -240 113
-245 113 -3 0 -9 -10 -14 -22z"/>
<path d="M16820 12913 c-267 -109 -538 -217 -832 -333 -130 -51 -239 -98 -241
-104 -7 -17 95 -266 108 -266 6 0 112 41 235 90 123 50 231 90 240 90 14 0 62
-114 202 -478 11 -29 23 -54 27 -56 3 -2 26 5 51 16 25 11 56 25 70 30 14 6
33 14 42 19 10 5 24 9 31 9 8 0 21 8 31 18 14 17 15 22 2 48 -36 74 -197 487
-193 497 4 13 287 126 302 121 6 -3 37 -73 69 -157 32 -83 65 -165 71 -182 7
-16 29 -73 50 -125 20 -52 41 -100 46 -107 7 -8 40 1 122 34 62 25 116 49 121
53 5 5 2 23 -7 42 -8 18 -86 210 -172 426 -86 215 -160 394 -164 396 -3 2 -98
-34 -211 -81z"/>
<path d="M1982 12493 c-9 -27 -30 -95 -73 -238 -34 -116 -81 -268 -89 -295 -5
-14 -23 -72 -40 -130 -17 -58 -35 -116 -39 -130 -5 -14 -19 -59 -31 -100 -13
-41 -31 -100 -41 -131 -11 -30 -19 -62 -19 -71 0 -15 34 -29 145 -59 22 -6 51
-15 64 -21 17 -6 28 -5 37 4 13 12 111 322 122 381 5 34 -4 35 182 -23 74 -23
149 -45 165 -50 27 -7 156 -47 425 -130 52 -17 127 -39 165 -51 39 -12 80 -25
93 -30 41 -16 62 -11 73 19 18 44 68 212 72 240 2 15 -30 29 -143 62 -41 12
-86 25 -100 30 -14 4 -59 18 -100 30 -41 12 -86 25 -100 30 -14 5 -59 18 -100
30 -41 12 -86 26 -100 30 -14 5 -72 23 -130 40 -141 42 -294 91 -298 95 -3 3
44 167 68 235 29 84 52 171 48 182 -3 7 -27 19 -54 27 -27 8 -74 22 -104 32
-74 25 -86 24 -98 -8z"/>
<path d="M17518 11115 c-2 -3 -45 -9 -94 -15 -49 -5 -120 -14 -159 -19 -158
-21 -369 -45 -555 -65 -80 -9 -173 -20 -206 -26 -34 -5 -80 -10 -102 -10 -23
0 -64 -5 -91 -11 l-50 -10 6 -67 c3 -37 11 -101 18 -142 10 -64 14 -75 31 -74
10 1 58 7 107 13 48 6 124 15 170 21 45 5 194 23 331 40 137 17 252 28 255 25
3 -3 -6 -16 -20 -29 -36 -35 -547 -495 -678 -611 l-113 -100 7 -50 c4 -27 10
-78 14 -112 4 -34 9 -64 12 -67 2 -3 74 4 159 15 234 29 976 115 1164 135 l58
6 -6 61 c-3 34 -9 95 -12 134 -4 40 -12 77 -19 83 -9 7 -134 -5 -419 -40 -468
-57 -416 -52 -416 -41 0 8 305 283 500 451 35 30 109 95 164 144 56 49 103 90
104 92 2 1 -1 44 -8 96 -6 51 -14 112 -16 136 l-5 42 -63 0 c-34 0 -65 -2 -68
-5z"/>
<path d="M1625 10962 c-123 -167 -151 -423 -72 -650 65 -187 255 -346 477
-401 288 -70 536 -14 716 164 100 99 145 179 186 330 18 67 17 298 -1 345 -47
123 -49 125 -156 135 -33 3 -90 8 -127 11 -38 4 -68 4 -68 0 0 -3 14 -31 31
-61 107 -190 68 -450 -85 -565 -103 -78 -245 -106 -384 -76 -258 54 -384 225
-346 467 7 42 20 94 30 115 23 51 86 144 113 168 26 24 19 36 -24 36 -19 0
-56 4 -82 9 -26 5 -76 12 -111 14 l-63 5 -34 -46z"/>
<path d="M2585 9534 c-126 -102 -238 -189 -247 -195 -14 -7 -21 1 -43 49 -60
131 -182 211 -334 220 -231 13 -395 -93 -461 -298 -11 -34 -14 -89 -13 -225 2
-99 5 -198 7 -220 3 -22 8 -104 12 -183 4 -89 11 -146 19 -152 8 -6 78 -5 206
4 107 8 410 29 674 46 264 17 486 33 493 36 10 3 12 23 7 86 -3 46 -8 110 -10
142 -3 32 -6 60 -8 62 -1 2 -114 -5 -251 -14 -136 -10 -251 -15 -256 -12 -13
8 -15 141 -3 148 5 4 117 88 248 187 l237 180 -7 85 c-4 47 -11 118 -14 159
-3 41 -10 76 -16 77 -5 1 -113 -81 -240 -182z m-550 -248 c65 -50 77 -92 91
-317 l6 -107 -28 -6 c-16 -3 -92 -8 -169 -11 -77 -4 -147 -9 -156 -11 -24 -7
-27 8 -35 178 -8 181 -1 212 58 262 47 40 63 45 140 42 44 -2 64 -8 93 -30z"/>
<path d="M16930 9573 c-83 -11 -168 -36 -244 -72 -149 -71 -227 -149 -296
-296 -50 -107 -60 -154 -60 -287 0 -162 35 -265 133 -396 83 -110 255 -209
426 -244 77 -16 119 -19 216 -15 66 3 138 11 160 17 245 68 413 228 475 454
28 100 28 273 -1 368 -66 224 -250 387 -504 449 -81 19 -240 31 -305 22z m254
-320 c213 -52 340 -222 306 -404 -26 -138 -117 -228 -275 -274 -80 -24 -264
-16 -349 14 -71 25 -139 67 -183 113 -97 102 -116 261 -46 389 84 156 307 222
547 162z"/>
<path d="M4586 9268 c5 -95 24 -283 38 -378 l11 -75 651 4 c484 3 653 1 658
-8 9 -13 28 -167 30 -231 l1 -45 -642 4 -643 4 0 -24 c0 -24 43 -204 75 -313
l17 -59 992 7 992 6 90 -56 c49 -31 119 -76 156 -100 37 -24 70 -44 73 -44 3
0 39 -22 80 -50 41 -27 77 -50 80 -50 3 0 33 -18 65 -40 32 -22 63 -40 67 -40
4 0 19 -9 33 -20 32 -25 58 -25 90 0 14 11 29 20 33 20 4 0 35 18 67 40 32 22
62 40 65 40 3 0 33 18 65 40 32 22 62 40 65 40 3 0 39 23 80 50 41 28 77 50
80 50 4 0 26 14 50 30 24 17 48 30 54 30 6 0 11 5 11 10 0 6 5 10 11 10 5 0
37 18 69 40 32 22 62 40 65 40 4 0 26 14 50 30 24 17 47 30 50 30 4 0 19 8 33
19 15 10 43 28 62 38 19 11 73 44 120 73 47 29 99 61 115 70 110 64 185 113
185 120 0 4 -71 52 -157 106 -87 54 -189 117 -226 141 -37 24 -70 43 -73 43
-3 0 -38 23 -79 50 -41 28 -76 50 -79 50 -2 0 -61 36 -131 80 -70 44 -129 80
-131 80 -3 0 -38 23 -79 50 -41 28 -76 50 -79 50 -2 0 -40 22 -83 49 l-78 49
-1526 7 -1526 7 3 -74z"/>
<path d="M11839 9330 l-1265 -5 -85 -54 c-172 -110 -189 -121 -194 -121 -3 0
-36 -20 -73 -43 -72 -47 -184 -117 -297 -187 -38 -24 -100 -63 -137 -87 -37
-23 -70 -43 -73 -43 -3 0 -36 -20 -73 -43 -37 -24 -103 -66 -147 -94 -44 -27
-117 -73 -162 -101 -46 -29 -118 -74 -160 -100 -194 -121 -253 -159 -330 -209
-46 -29 -85 -53 -88 -53 -3 0 -39 -22 -80 -50 -41 -27 -77 -50 -80 -50 -3 0
-39 -22 -80 -50 -41 -27 -79 -50 -85 -50 -5 0 -10 -4 -10 -10 0 -5 -5 -10 -11
-10 -5 0 -37 -18 -69 -40 -32 -22 -64 -40 -69 -40 -6 0 -11 -4 -11 -10 0 -5
-5 -10 -11 -10 -5 0 -37 -18 -69 -40 -32 -22 -62 -40 -65 -40 -3 0 -39 -22
-80 -50 -41 -27 -77 -50 -80 -50 -4 0 -26 -13 -50 -30 -24 -16 -48 -30 -54
-30 -6 0 -11 -4 -11 -8 0 -5 -12 -15 -27 -23 -16 -7 -47 -26 -70 -41 -23 -15
-46 -28 -52 -28 -6 0 -11 -4 -11 -10 0 -5 -5 -10 -11 -10 -6 0 -24 -10 -41
-21 l-30 -22 -1274 5 c-726 3 -1277 2 -1280 -3 -6 -11 138 -293 216 -421 l52
-88 569 0 568 0 16 -37 c10 -21 39 -82 66 -136 28 -54 47 -102 44 -107 -4 -6
-197 -8 -536 -3 -409 5 -529 4 -529 -6 0 -25 258 -354 358 -457 16 -17 104
-17 787 -4 416 7 472 7 487 -7 9 -8 72 -89 140 -179 l123 -164 2379 3 2380 2
66 130 67 130 509 5 c375 4 515 8 530 17 31 18 64 79 64 118 0 119 -209 415
-472 670 -126 123 -175 163 -303 250 -169 115 -388 208 -585 249 -158 32 -250
36 -816 36 -314 0 -574 3 -577 6 -7 7 30 45 113 118 25 22 92 83 150 136 58
53 125 114 150 136 24 21 78 71 120 110 71 67 126 117 178 160 22 19 62 19
1569 19 l1546 0 13 40 c14 46 46 172 68 264 9 35 13 68 9 74 -4 6 -233 8 -644
6 -350 -2 -640 -1 -644 3 -6 6 6 104 27 222 l11 59 649 -5 649 -6 9 23 c8 21
18 102 49 405 5 47 7 88 5 92 -5 8 -453 8 -2835 -2z m-1794 -1445 c24 -23 25
-31 25 -135 0 -67 -4 -110 -10 -110 -5 0 -10 -13 -10 -30 0 -16 -4 -30 -10
-30 -5 0 -10 -13 -10 -30 0 -18 -5 -30 -13 -30 -9 0 -12 -10 -9 -30 3 -22 0
-30 -11 -30 -10 0 -13 -6 -10 -20 4 -14 0 -20 -10 -20 -10 0 -13 -6 -10 -20 4
-14 0 -20 -10 -20 -10 0 -13 -6 -10 -20 4 -14 0 -20 -11 -20 -9 0 -13 -6 -10
-14 3 -8 -4 -25 -15 -37 -12 -13 -21 -26 -21 -31 0 -4 -13 -22 -30 -40 -16
-17 -30 -35 -30 -40 0 -5 -22 -31 -50 -59 -27 -27 -50 -54 -50 -60 0 -12 -107
-119 -119 -119 -6 0 -28 -18 -50 -40 -22 -22 -45 -40 -52 -40 -6 0 -20 -10
-30 -21 -11 -12 -25 -19 -34 -15 -9 3 -15 0 -15 -10 0 -11 -6 -15 -20 -11 -14
3 -20 0 -20 -10 0 -10 -6 -14 -20 -10 -11 3 -27 -2 -35 -10 -9 -8 -22 -12 -30
-9 -9 3 -15 0 -15 -9 0 -10 -10 -15 -30 -15 -16 0 -30 -5 -30 -11 0 -7 -21
-10 -60 -7 -43 2 -60 -1 -60 -9 0 -10 -27 -13 -100 -13 -60 0 -100 -4 -100
-10 0 -5 -20 -10 -45 -10 -25 0 -45 5 -45 10 0 6 -53 10 -140 10 -87 0 -140 4
-140 10 0 6 -27 10 -60 10 -33 0 -60 4 -60 10 0 6 -18 10 -40 10 -22 0 -40 5
-40 10 0 6 -13 10 -30 10 -16 0 -30 5 -30 10 0 6 -9 10 -20 10 -11 0 -20 5
-20 10 0 6 -7 10 -15 10 -20 0 -105 85 -105 105 0 8 -4 15 -10 15 -5 0 -10 11
-10 25 0 14 5 25 10 25 6 0 10 11 10 25 0 32 163 200 186 191 8 -3 14 -1 14 5
0 18 30 41 45 35 8 -3 15 -1 15 5 0 18 30 41 45 35 9 -3 15 1 15 10 0 11 6 15
20 11 11 -3 20 -1 20 5 0 17 30 40 45 34 9 -3 15 1 15 10 0 11 6 15 20 11 14
-3 20 0 20 10 0 10 6 14 20 10 14 -3 20 0 20 10 0 10 6 14 20 10 14 -3 20 0
20 10 0 10 6 14 20 10 14 -3 20 0 20 10 0 10 6 14 20 10 14 -3 20 0 20 10 0
10 6 14 20 10 14 -3 20 0 20 10 0 10 6 14 20 10 14 -3 20 0 20 10 0 10 6 14
20 10 11 -3 22 -1 25 3 10 16 114 62 124 55 6 -3 11 1 11 11 0 12 6 15 20 11
14 -4 29 3 46 20 14 14 31 22 39 19 7 -2 19 2 26 10 7 9 21 13 31 11 12 -3 18
0 18 10 0 10 6 14 20 10 14 -3 20 0 20 10 0 10 6 14 20 10 14 -3 20 0 20 10 0
10 6 14 20 10 10 -3 25 2 31 10 7 8 21 12 31 10 12 -3 18 0 18 10 0 10 6 14
20 10 14 -3 20 0 20 10 0 11 8 14 30 11 22 -3 30 0 30 10 0 9 7 13 20 9 14 -3
20 0 20 10 0 11 8 14 30 11 22 -3 30 0 30 10 0 9 7 13 20 9 14 -3 20 0 20 10
0 11 8 14 30 11 20 -3 30 0 30 9 0 7 9 13 20 13 11 0 20 5 20 10 0 6 14 10 30
10 17 0 30 5 30 10 0 6 18 10 40 10 22 0 40 5 40 10 0 6 37 10 90 10 83 0 93
-2 115 -25z m580 -780 c98 -22 198 -104 245 -201 30 -63 32 -72 28 -158 -2
-73 -8 -101 -28 -140 -35 -70 -107 -139 -176 -171 -82 -38 -202 -39 -286 -2
-120 54 -218 200 -218 327 0 75 44 182 95 234 46 47 98 86 116 86 9 0 19 3 23
7 26 26 125 35 201 18z m1377 -23 c247 -68 479 -212 683 -423 118 -122 161
-177 143 -184 -7 -3 -177 -6 -378 -7 l-364 -3 -58 -95 c-31 -52 -62 -101 -68
-108 -9 -9 -88 -12 -358 -10 l-347 3 -3 415 c-1 228 0 421 3 428 4 11 67 13
338 10 300 -4 339 -7 409 -26z"/>
<path d="M9965 7870 c3 -5 12 -7 20 -3 21 7 19 13 -6 13 -11 0 -18 -4 -14 -10z"/>
<path d="M10005 7850 c3 -5 8 -10 11 -10 2 0 4 5 4 10 0 6 -5 10 -11 10 -5 0
-7 -4 -4 -10z"/>
<path d="M10027 7825 c-4 -8 -2 -17 3 -20 6 -4 10 3 10 14 0 25 -6 27 -13 6z"/>
<path d="M8181 7058 c-14 -23 -14 -23 8 -4 22 20 25 26 13 26 -4 0 -13 -10
-21 -22z"/>
<path d="M8150 7004 c0 -14 4 -23 9 -20 5 3 7 15 4 26 -7 28 -13 25 -13 -6z"/>
<path d="M8132 6950 c0 -14 2 -19 5 -12 2 6 2 18 0 25 -3 6 -5 1 -5 -13z"/>
<path d="M8150 6906 c0 -31 6 -34 13 -6 3 11 1 23 -4 26 -5 3 -9 -6 -9 -20z"/>
<path d="M8190 6845 c13 -14 26 -25 28 -25 3 0 -5 11 -18 25 -13 14 -26 25
-28 25 -3 0 5 -11 18 -25z"/>
<path d="M2775 8378 c-103 -77 -355 -261 -553 -404 -31 -22 -140 -101 -242
-174 -102 -73 -204 -147 -227 -163 -48 -35 -49 -36 -29 -109 8 -29 24 -86 34
-126 11 -40 23 -76 26 -80 7 -6 52 -11 261 -32 259 -25 606 -61 780 -81 196
-22 273 -30 354 -36 l83 -6 -5 34 c-4 29 -23 101 -53 209 -4 14 -11 30 -15 36
-5 6 -82 17 -179 24 l-170 13 -20 66 c-53 182 -116 429 -109 434 2 2 64 46
137 97 74 51 136 98 138 105 5 12 0 36 -35 165 -30 114 -33 120 -45 119 -6 0
-65 -41 -131 -91z m-283 -585 c51 -186 69 -266 62 -273 -5 -5 -94 -1 -209 10
-110 11 -206 19 -212 20 -29 0 -8 21 99 96 259 183 252 179 260 147z"/>
<path d="M16245 8143 c-8 -8 -15 -23 -15 -33 0 -11 -4 -29 -9 -42 -16 -41 -51
-163 -51 -179 0 -18 -4 -16 275 -95 110 -31 203 -60 207 -63 11 -10 -26 -132
-42 -141 -8 -4 -53 -19 -100 -33 -47 -14 -161 -49 -255 -77 -93 -29 -180 -55
-192 -57 -32 -7 -37 -17 -67 -118 -15 -49 -33 -112 -41 -139 -16 -50 -19 -76
-10 -76 7 0 553 178 580 189 19 8 22 3 33 -67 29 -186 135 -296 332 -347 201
-53 389 37 485 231 30 60 71 184 125 379 5 17 25 88 46 158 21 74 33 131 28
136 -5 4 -101 34 -214 66 -238 67 -906 262 -1053 308 -42 13 -49 13 -62 0z
m830 -533 c77 -23 148 -44 158 -47 22 -6 20 -28 -19 -155 -56 -184 -91 -238
-166 -259 -81 -21 -183 22 -218 92 -30 58 -27 109 15 256 45 152 51 166 73
159 9 -3 80 -23 157 -46z"/>
<path d="M15768 6723 c-8 -10 -29 -43 -45 -73 -17 -30 -40 -72 -52 -93 -11
-21 -21 -42 -21 -48 0 -6 60 -68 132 -138 289 -276 503 -485 512 -498 6 -12 4
-14 -10 -10 -11 3 -163 42 -339 87 -176 45 -364 93 -417 107 -54 14 -104 23
-112 20 -7 -3 -30 -36 -51 -74 -21 -37 -47 -83 -57 -101 -10 -18 -18 -39 -18
-47 0 -9 44 -57 97 -108 186 -176 339 -322 493 -472 335 -325 431 -415 439
-415 5 0 16 12 24 28 7 15 26 48 40 75 62 110 77 138 77 146 0 5 -73 76 -162
157 -425 390 -518 477 -515 480 5 5 651 -164 831 -217 38 -11 72 -17 76 -12 4
4 21 33 37 63 17 30 40 73 52 94 l23 40 -80 75 c-43 42 -192 183 -330 315
-232 220 -281 272 -249 261 71 -24 871 -245 878 -243 6 2 33 44 60 93 79 142
84 154 73 165 -6 6 -188 55 -405 110 -431 109 -485 123 -886 231 -87 23 -77
23 -95 2z"/>
<path d="M3460 6601 c-26 -19 -83 -53 -133 -79 -38 -19 -43 -36 -19 -69 10
-15 21 -33 23 -38 2 -6 36 -64 75 -130 143 -241 204 -347 204 -354 0 -3 -60
-41 -132 -83 -101 -58 -136 -74 -144 -65 -9 10 -74 121 -194 332 -10 17 -30
53 -47 80 -16 28 -32 58 -36 68 -8 22 -22 22 -55 -1 -15 -10 -34 -22 -42 -25
-39 -17 -116 -66 -125 -81 -7 -11 -6 -22 4 -38 59 -94 271 -463 271 -472 0
-11 -223 -146 -241 -146 -4 0 -16 15 -25 33 -9 17 -36 64 -59 102 -23 39 -55
95 -72 125 -36 66 -60 107 -102 178 -17 29 -31 56 -31 60 0 4 -10 20 -23 36
l-23 28 -37 -21 c-20 -12 -54 -31 -74 -43 -21 -12 -50 -27 -64 -35 -47 -24
-53 -39 -30 -72 12 -16 21 -31 21 -34 0 -3 18 -35 41 -72 22 -37 49 -82 59
-99 9 -17 50 -87 90 -156 40 -69 81 -140 91 -157 11 -18 27 -48 38 -65 10 -18
40 -70 66 -115 26 -46 49 -83 52 -83 3 0 186 105 407 234 220 129 486 283 591
342 104 60 191 116 193 125 1 9 -29 72 -69 140 -39 68 -80 139 -90 157 -11 17
-28 49 -40 70 -12 20 -25 42 -29 47 -4 6 -21 35 -37 65 -17 30 -62 109 -100
175 -38 66 -72 128 -76 138 -8 22 -45 21 -77 -2z"/>
<path d="M15025 5490 l-98 -111 16 -32 c9 -18 33 -61 52 -97 83 -148 96 -173
93 -186 -3 -11 -79 -99 -268 -308 -29 -34 -58 -63 -63 -65 -5 -2 -81 25 -170
60 l-160 63 -54 -59 c-144 -158 -161 -185 -117 -185 8 0 22 -4 32 -9 9 -5 42
-19 72 -30 111 -40 737 -274 800 -298 63 -24 247 -95 383 -147 40 -16 74 -23
82 -19 8 5 55 55 104 111 l90 103 -18 32 c-25 45 -99 184 -163 307 -165 315
-297 568 -393 755 -59 116 -111 214 -115 218 -3 4 -51 -42 -105 -103z m311
-870 c57 -107 102 -195 100 -197 -3 -3 -91 29 -271 100 -94 37 -140 60 -139
70 2 19 186 228 198 224 4 -1 55 -90 112 -197z"/>
<path d="M4015 5488 c-107 -97 -402 -357 -630 -553 -250 -216 -295 -257 -295
-267 0 -9 43 -61 154 -185 28 -32 51 -41 58 -25 6 14 380 342 390 342 9 0 387
-429 395 -448 6 -14 2 -18 -234 -219 -89 -76 -162 -143 -162 -150 -1 -13 179
-223 191 -223 4 0 50 37 101 83 50 46 205 182 342 302 138 120 266 232 285
249 19 17 97 84 173 150 124 107 156 146 130 158 -5 2 -37 37 -73 78 -35 41
-75 85 -88 98 l-24 23 -86 -79 c-153 -138 -341 -302 -346 -302 -8 0 -391 441
-394 454 -3 12 55 65 327 300 50 43 91 84 91 90 0 16 -180 216 -193 215 -7 0
-57 -41 -112 -91z"/>
<path d="M13863 4323 c-165 -132 -165 -133 -148 -160 9 -13 23 -32 30 -41 8
-9 44 -55 82 -102 37 -47 73 -92 80 -100 7 -8 36 -45 66 -83 l53 -68 23 -167
c12 -92 26 -194 31 -227 22 -151 30 -206 40 -285 6 -47 15 -107 21 -133 5 -27
9 -68 9 -92 0 -51 8 -75 24 -75 6 0 63 42 126 93 93 75 115 98 114 117 -1 23
-7 60 -35 225 -5 33 -14 85 -18 115 -5 30 -17 106 -26 167 -10 62 -16 116 -12
119 3 4 27 -3 52 -15 24 -11 49 -21 55 -21 6 0 18 -5 28 -10 22 -14 464 -190
475 -190 4 0 52 35 105 78 53 44 107 85 120 93 34 21 27 35 -30 57 -109 42
-474 184 -493 192 -11 5 -96 39 -190 75 -93 36 -176 72 -184 78 -16 13 -68 79
-215 267 -54 69 -104 128 -111 132 -8 5 -35 -9 -72 -39z"/>
<path d="M5278 4217 c-42 -56 -181 -237 -308 -402 -128 -165 -244 -317 -259
-337 -14 -21 -32 -37 -38 -38 -11 0 -176 124 -295 222 -26 22 -52 37 -58 33
-22 -14 -150 -181 -150 -196 0 -9 35 -43 77 -75 43 -33 130 -99 194 -149 64
-49 131 -101 149 -115 18 -14 59 -45 90 -70 32 -25 101 -79 155 -120 53 -41
102 -80 108 -86 35 -31 148 -114 156 -114 6 0 23 17 38 38 15 20 30 39 33 42
3 3 25 31 49 63 l45 59 -31 26 c-17 15 -62 51 -100 79 -178 137 -213 165 -213
171 0 4 37 55 82 112 45 58 104 134 132 170 27 36 89 115 136 175 47 61 110
142 140 180 49 65 105 135 165 210 14 17 25 35 25 42 0 7 -35 38 -77 70 -43
31 -80 60 -83 63 -11 13 -69 50 -77 50 -4 0 -42 -46 -85 -103z"/>
<path d="M6360 3061 c-125 -29 -218 -129 -259 -277 -41 -150 46 -315 205 -390
51 -24 71 -28 154 -28 79 0 103 4 142 23 56 27 136 104 159 152 9 19 22 46 29
62 9 17 13 63 13 120 -1 79 -4 99 -26 141 -15 28 -40 65 -58 83 -37 40 -112
93 -131 93 -8 0 -19 5 -24 10 -14 14 -159 21 -204 11z"/>
<path d="M12725 3066 c-5 -2 -30 -9 -55 -17 -88 -25 -170 -97 -216 -188 -23
-46 -27 -67 -27 -142 0 -54 5 -100 13 -117 7 -15 20 -42 29 -61 23 -47 105
-126 160 -153 38 -18 63 -22 142 -23 62 0 106 5 125 14 16 7 40 19 53 25 43
20 126 103 148 148 65 138 56 241 -34 374 -59 88 -141 133 -253 139 -41 3 -79
3 -85 1z"/>
<path d="M7996 2988 c-2 -13 -10 -52 -16 -88 -6 -36 -15 -87 -20 -115 -5 -27
-14 -79 -20 -115 -6 -36 -15 -85 -20 -110 -5 -25 -14 -74 -20 -110 -15 -87
-26 -142 -42 -220 -7 -36 -13 -123 -12 -195 0 -112 3 -138 24 -190 30 -77 65
-128 132 -191 107 -101 286 -164 463 -164 241 1 401 114 499 352 14 35 41 159
67 303 6 33 14 80 19 105 9 46 42 229 61 335 6 33 14 78 19 100 25 116 23 122
-62 135 -29 4 -80 13 -113 19 -104 20 -98 22 -111 -34 -6 -27 -16 -79 -23
-115 -23 -139 -51 -297 -60 -345 -5 -27 -19 -106 -32 -175 -40 -227 -73 -304
-156 -362 -46 -32 -51 -33 -143 -32 -170 1 -249 63 -280 220 -13 64 -17 34 91
624 4 25 13 71 19 103 5 31 15 83 21 115 6 31 13 69 16 84 4 23 1 29 -23 38
-15 6 -48 13 -73 16 -25 3 -57 9 -71 14 -14 5 -49 11 -77 15 -49 5 -53 4 -57
-17z"/>
<path d="M11285 3000 c-22 -4 -71 -13 -110 -20 -140 -24 -171 -29 -225 -39
-54 -10 -234 -42 -355 -62 -124 -22 -153 -27 -279 -48 -72 -12 -134 -24 -138
-27 -11 -7 -10 -34 2 -86 5 -24 15 -71 21 -106 7 -34 15 -64 18 -66 3 -2 31 0
61 5 30 6 80 14 110 19 30 5 101 18 157 28 l102 19 11 -51 c10 -50 53 -296 70
-406 5 -30 14 -82 20 -115 6 -33 15 -86 20 -117 6 -32 15 -85 20 -118 6 -33
15 -88 20 -122 6 -35 14 -87 19 -116 4 -29 12 -57 18 -63 9 -9 36 -7 208 22
39 6 75 15 81 20 8 6 8 25 2 61 -14 86 -29 170 -38 218 -4 25 -18 99 -29 165
-12 66 -26 143 -31 170 -5 28 -18 102 -29 165 -11 63 -28 164 -39 223 -10 59
-16 109 -13 111 11 6 105 25 181 36 41 6 94 16 117 21 23 5 55 9 71 9 15 0 36
6 46 13 16 12 17 20 7 82 -6 39 -14 86 -17 105 -13 89 -8 83 -79 70z"/>
<path d="M9510 2091 l0 -680 134 -3 c73 -2 141 -2 150 0 15 3 16 60 14 680
l-3 677 -147 3 -148 3 0 -680z"/>
</g>
</svg>
