<?xml version="1.0" encoding="UTF-8"?>
<!-- Generator: Adobe Illustrator 24.0.1, SVG Export Plug-In . SVG Version: 6.00 Build 0)  -->
<svg version="1.1" id="Layer_1" xmlns="http://www.w3.org/2000/svg" xmlns:xlink="http://www.w3.org/1999/xlink" x="0px" y="0px" width="94.7px" height="207.8px" viewBox="0 0 94.7 207.8" style="enable-background:new 0 0 94.7 207.8;" xml:space="preserve">
<style type="text/css">
	.st0{fill:url(#SVGID_1_);}
	.st1{fill:url(#SVGID_2_);}
</style>
<g>
	
		<linearGradient id="SVGID_1_" gradientUnits="userSpaceOnUse" x1="-14.7681" y1="-315.8589" x2="63.2319" y2="-238.8589" gradientTransform="matrix(1 0 0 -1 0 -123.2)">
		<stop offset="0.2808" style="stop-color:#95C93D"/>
		<stop offset="0.292" style="stop-color:#91C53E"/>
		<stop offset="0.533" style="stop-color:#519846"/>
		<stop offset="0.7397" style="stop-color:#0A7F48"/>
		<stop offset="0.9021" style="stop-color:#007248"/>
		<stop offset="1" style="stop-color:#006E47"/>
	</linearGradient>
	<path class="st0" d="M41.3,117.6l-24.1,25.6C2.6,157.8,0.1,176.4,0.1,183.6C0,184.3,0,185,0,185.8v0.2c0,6.1,1.4,14,2.2,16.2   l1.8,5.6l50.9-51.7c7.2-7.2,10.7-17.1,9.8-27.2c-0.8-7.8-4.2-15.2-9.8-20.7l-6.3-6.3l-2.7-2.8C46,99.4,48.5,108.9,41.3,117.6"/>
	
		<linearGradient id="SVGID_2_" gradientUnits="userSpaceOnUse" x1="-11.8088" y1="-141.6116" x2="97.1912" y2="-247.6116" gradientTransform="matrix(1 0 0 -1 0 -123.2)">
		<stop offset="0" style="stop-color:#006E47"/>
		<stop offset="0.106" style="stop-color:#007047"/>
		<stop offset="0.2349" style="stop-color:#007848"/>
		<stop offset="0.3755" style="stop-color:#258548"/>
		<stop offset="0.5247" style="stop-color:#559A46"/>
		<stop offset="0.679" style="stop-color:#85BB3F"/>
		<stop offset="0.7192" style="stop-color:#95C93D"/>
	</linearGradient>
	<path class="st1" d="M2.4,5.4c0,0.2-4,15,1.2,33.4c4.2,14.8,16.3,28.5,16.3,28.5l50.2,50.4c8.5,8.5,6.1,19.2,5.9,19.5l0,0l2.2-2.5   l6.5-6.3c5.6-5.6,9-12.9,9.8-20.7c0.1-1.1,0.2-2.1,0.2-3.1v-0.3c0-8.9-3.6-17.4-9.9-23.8L3.6,0L2.4,5.4z"/>
</g>
</svg>